<?xml version="1.0" encoding="UTF-8"?>
<svg id="Layer_2" data-name="Layer 2" xmlns="http://www.w3.org/2000/svg" xmlns:xlink="http://www.w3.org/1999/xlink" viewBox="0 0 111 168.17">
  <defs>
    <style>
      .cls-1 {
        fill: url(#linear-gradient);
      }

      .cls-2 {
        fill: #f2e3d1;
      }

      .cls-3 {
        fill: #f9b984;
      }

      .cls-4 {
        fill: #ffe7d4;
      }

      .cls-5 {
        fill: #ff9a26;
      }

      .cls-6 {
        fill: #915323;
      }

      .cls-7 {
        fill: #c49ca6;
      }

      .cls-8 {
        fill: #542d1c;
      }

      .cls-9 {
        fill: #482300;
      }

      .cls-10 {
        fill: url(#linear-gradient-2);
      }
    </style>
    <linearGradient id="linear-gradient" x1="80.85" y1="26.62" x2="86.18" y2="26.12" gradientUnits="userSpaceOnUse">
      <stop offset="0" stop-color="#f9a263"/>
      <stop offset=".16" stop-color="#f9a76a"/>
      <stop offset=".65" stop-color="#f9b47d"/>
      <stop offset="1" stop-color="#f9b984"/>
    </linearGradient>
    <linearGradient id="linear-gradient-2" x1="25.49" y1="36.13" x2="39.37" y2="53.4" gradientUnits="userSpaceOnUse">
      <stop offset="0" stop-color="#542d1c"/>
      <stop offset=".06" stop-color="#512b1a"/>
      <stop offset=".55" stop-color="#44210f"/>
      <stop offset="1" stop-color="#401e0c"/>
    </linearGradient>
  </defs>
  <g id="_ëÎÓÈ_1" data-name="ëÎÓÈ 1">
    <g>
      <g>
        <path class="cls-7" d="m24.31,166.9c-.06-.06-.08-.16-.01-.23.06-.06.16-.08.23-.01.01.01,1.33,1.19,3.05,1.19s3.01-.95,3.01-2.17c0-1.39-1.34-1.71-2.76-2.03-1.46-.34-2.96-.69-2.96-2.3,0-1.14,1.22-2.08,2.72-2.08,1.73,0,2.64,1.02,2.67,1.07.06.06.05.16-.01.23-.08.05-.18.05-.23-.01-.01-.01-.85-.95-2.43-.95-1.32,0-2.4.79-2.4,1.76,0,1.34,1.32,1.66,2.71,1.98,1.48.34,3,.69,3,2.35,0,1.39-1.46,2.48-3.33,2.48s-3.21-1.22-3.26-1.27Z"/>
        <path class="cls-7" d="m35.08,162.12c0,.09-.08.15-.16.15h-1v4.9c0,.35.29.64.64.64.09,0,.16.06.16.15s-.08.16-.16.16c-.53,0-.95-.43-.95-.95v-4.9h-1.05c-.09,0-.16-.06-.16-.15s.08-.16.16-.16h1.05v-2.46c0-.09.06-.16.15-.16s.16.08.16.16v2.46h1c.09,0,.16.08.16.16Z"/>
        <path class="cls-7" d="m43.18,162.12v5.82c0,.1-.06.16-.15.16-.1,0-.16-.06-.16-.16v-1.53c-.48,1-1.46,1.69-2.59,1.69-1.61,0-2.9-1.39-2.9-3.08s1.29-3.07,2.9-3.07c1.13,0,2.11.7,2.59,1.69v-1.53c0-.08.06-.16.16-.16.09,0,.15.09.15.16Zm-.31,2.91c0-1.52-1.17-2.75-2.59-2.75s-2.59,1.23-2.59,2.75,1.17,2.76,2.59,2.76,2.59-1.23,2.59-2.76Z"/>
        <path class="cls-7" d="m50.46,164.44c0-1.22-.98-2.17-2.16-2.17s-2.17.95-2.17,2.17v3.5s-.01.08-.04.1c-.03.04-.06.06-.11.06h-.05s-.02-.01-.04-.03c-.01,0-.02-.01-.04-.02t-.01-.03s-.02-.04-.02-.06v-5.86c0-.1.08-.15.16-.15s.15.05.15.15v1.13c.43-.77,1.24-1.28,2.17-1.28,1.36,0,2.47,1.1,2.47,2.48v3.5c0,.09-.08.16-.16.16-.1,0-.15-.08-.15-.16v-3.5Z"/>
        <path class="cls-7" d="m58.89,168.11c-.08,0-.15-.08-.15-.16v-1.52c-.49.99-1.49,1.68-2.65,1.68-1.66,0-2.99-1.39-2.99-3.09s1.33-3.06,2.99-3.06c1.15,0,2.16.69,2.65,1.69v-4.14c0-.09.08-.19.15-.19.1,0,.16.1.16.19v8.43c0,.09-.06.16-.16.16Zm-.15-3.2c-.05-1.47-1.24-2.64-2.65-2.64s-2.67,1.23-2.67,2.75,1.2,2.77,2.67,2.77,2.65-1.24,2.65-2.77v-.11Z"/>
        <path class="cls-7" d="m65.57,165.17v-5.66c0-.09.06-.19.16-.19.08,0,.15.1.15.19v4.14c.49-1,1.49-1.69,2.65-1.69,1.66,0,2.99,1.38,2.99,3.06s-1.33,3.09-2.99,3.09c-1.15,0-2.16-.69-2.65-1.68v1.52c0,.09-.08.16-.15.16-.1,0-.16-.08-.16-.16v-2.77Zm.31-.15c0,1.53,1.2,2.77,2.65,2.77s2.67-1.24,2.67-2.77-1.2-2.75-2.67-2.75-2.6,1.17-2.65,2.64v.11Z"/>
        <path class="cls-7" d="m76.47,161.96c1.61,0,2.91,1.38,2.91,3.07s-1.31,3.08-2.91,3.08-2.9-1.39-2.9-3.08,1.29-3.07,2.9-3.07Zm0,5.84c1.42,0,2.6-1.24,2.6-2.76s-1.18-2.76-2.6-2.76-2.59,1.23-2.59,2.76,1.17,2.76,2.59,2.76Z"/>
        <path class="cls-7" d="m87.4,168.07s-.02-.02-.02-.04c0,0-.01,0-.01-.01h0s-1.66-3.95-1.66-3.95l-1.66,3.94c-.02.05-.06.09-.11.1h-.08s-.04-.01-.06-.03c-.04-.02-.06-.06-.06-.1l-2.43-5.79c-.04-.08,0-.18.09-.2.08-.04.18,0,.21.08l2.3,5.47,1.64-3.92c.02-.06.1-.1.18-.09.06,0,.11.04.15.09l1.64,3.92,2.31-5.47c.02-.08.11-.11.2-.08.08.03.13.13.09.2l-2.45,5.81s-.02.05-.05.06c-.04.03-.06.04-.09.04-.04,0-.05,0-.08-.01-.02,0-.04-.01-.05-.03Z"/>
      </g>
      <g>
        <path class="cls-2" d="m111,140.85c0-2.67-24.85-4.83-55.5-4.83S0,138.18,0,140.85s24.85,4.83,55.5,4.83,55.5-2.16,55.5-4.83Z"/>
        <g>
          <g>
            <path class="cls-1" d="m86.81,24.44c-.14-.12-.27-.25-.38-.36-.05-.06-.09-.12-.13-.18.31-.07.65-.57.67-.97-.19.3-.55.48-.92.48-.13-.34-.2-.71-.28-1.1-.15-.72-.42-1.42-.77-2.08-.18-.34-.8-1.22-1.72-2.1-10.48,5.85-7.17,14.97-7.88,15.78.71.55,1.27.98,1.48,1.21l.11-.03c.5.57,4.63-1.53,7.39-1.7,1.23-.14,2.96-.37,3.5-.61,1.02-.44.64-1.24.25-2.05-.21-.43-.32-.87.03-1.26.18-.2.32-.23.42-.49.06-.17-.03-.33-.13-.46-.17-.23-.43-.16-.1-.3.26-.11.28-.54.16-.78-.18-.36-.65-.28-.26-1,.1-.18.25-.34.34-.53.1-.2-.04-.41-.21-.52-.52-.33-1.07-.58-1.56-.96Z"/>
            <g>
              <path class="cls-6" d="m74.35,33.5c-.67.11-2.07-1.56-3.02-3.49-.82-1.66-.91-2.68-.84-3.24.01-.1.03-.19.05-.27-.58.19-1.94.42-3-1.04-.69-.95-.98-2.52-.78-4.2.26-2.15,1.4-4.81,3.78-5.23.85-.15,1.56.11,2.09.42-.04-.14-.07-.27-.08-.4-.02-.47.35-.77.65-.75.17.01.36.15.35.48-.01.21.01.46.07.73.08-.33.23-.63.42-.84.25-.27.6-.29.82-.19.3.14.35.47.07.72-.14.12-.27.28-.41.47,1.31-.68,3.3-1.55,5.61-.88,1.4.41,3.07,1.21,3.87,2.74l.05.09-.08.06c-1.69,3.18-3.82,4.27-3.68,7.14l-.22.03c-.29-.65-.99-.66-1.32-.67-.53-.02-1.51.54-1.36,1.71.23,1.78,1.98,3.18,1.98,3.18,0,0-1.67,2.88-5.03,3.41Z"/>
              <path class="cls-9" d="m74.86,15.49c.3.14.35.47.07.72-.14.12-.27.28-.41.47.07-.04.43,6.36-4.05,10.35,0-.1,0-.18.02-.26,0-.04.01-.07.02-.11.01-.02.02-.03.04-.04,5.08-7.54,2.01-10.21,2.09-10.17-.04-.14-.07-.27-.08-.4-.02-.47.35-.77.65-.75.17.01.36.15.35.48-.01.21.01.46.07.73.08-.33.23-.63.42-.84.25-.27.6-.29.82-.19Z"/>
              <path class="cls-9" d="m87.06,22.59s-.69.94-2.14,1.29c-1.01.25,1.99,1.01,2.14-1.29Z"/>
              <path class="cls-3" d="m87.69,32.83s-2.98.94-5.73.68c1.42-.24,3.39-.38,5.73-.68Z"/>
            </g>
          </g>
          <path class="cls-3" d="m77.33,11.93c-.75-1.75-13-5.5-16.79-8.9-.89-.54-2.68-3.03-3.75-3.03s-2.14,0-3.03.18c-1.36.17-4.49.26-5.64,2.47-.26.2-.53.43-.82.69,0,0-7.81,8.61-12.27,12.54-4.46,3.75-8.75,7.14-12.31,11.96-1.43,1.96-2.86,4.46-2.32,7.14.36,2.5,2.14,4.82,3.57,6.96,2.71,4.62,8.39,16.47,16.3,24.67-.55,11.2,3.19,26.47,5.12,31.9,1.61,4.64.39,9.28.36,14.1-.05,7.59,4.37,14.14,2.63,22.13-.35,1.61-1.83,4.95.54,6.07,2.36,1.12,4.28-1.07,6.29-.4,2.01.67,14.32,3.21,13.92,1.07l-.05-.4c-.4-1.34-2.55-.81-3.28-1.17-1.37-.67-2.76-2.09-3.46-2.67-2.32-1.96-5.35-3.57-6.6-6.25-2.5-4.64-.89-10.35-1.25-15.35-.36-4.82-1.07-9.28,0-14.1.71-2.86,1.43-11.42,1.43-15.17,0-5.01-.67-9.63-.34-14.39,0-.51.49-.23.52-.25,2.46-1.25,4.31-3.23,6.78-4.46,2.5-1.25,7.09-2.71,9.59-3.61,2.68-.89,9.5-3.62,9.5-3.62,6.88-.12,6.5-6.5,5.12-9.25-1.38-2.77-2.25-4.88-2.51-7.63-.51-5.37-6.47-29.45-7.24-31.25Zm-7.51,30.37c-2.14,2.68-3.57,5.71-5.35,8.57-1.61,2.5-4.28,5-7.32,3.57-2.86-1.61-4.28-5-7.5-6.43-1.94-.81-3.95-1.1-6.04-.49-.22.07-.81-.01-.88-.13-4.56-7.28-10.2-10.28-11.64-12.05-.31-.31-1.36-1.48-2.03-2.54l-.11-.32c1.78.18,4.46-1.6,5.53-2.86,1.61-1.43,2.32-3.93,3.39-5.89,1.14-1.95,3.53-8.7,6.58-10.51h.16c.89.52,1.34.49,2.41.49,2.5-.18,2.99-1.94,2.45-3.73-.14-.46.87-3.17.98-3.19.07-.01,3.84-.33,5.62-.5,2.35-.1,4.24,1.74,6.12,3,1.73,1.03,7.5,5.11,9,6.25.29.22,4.02,16.6,3.12,19.62-.73,2.83-2.91,4.82-4.51,7.12Z"/>
          <path class="cls-5" d="m87.77,51.06c-3.75-9.25-4.1-12.7-4.06-13-.5,5.25-.71,10.96-6.04,11.62-4.96.62-9.08-3.75-7.46-8-1.47,2.05-3.76,5.85-5.03,8,2.42,5.01,6.2,9.11,11.49,11.69.28.14.48.32.62.52,2.42-.94,4.67-1.84,4.67-1.84,6.88-.12,7.02-6.01,5.81-9Z"/>
          <path class="cls-8" d="m45.38,98.52c1.28,3.7.76,7.41.49,11.2,2.69.36,5.46.17,8.12-.36-.14-2.57-.1-5.13.49-7.81.71-2.86,1.43-11.42,1.43-15.17,0-5.01-.67-9.63-.34-14.39,0-.51.49-.23.52-.25,1.34-.68,2.5-1.58,3.68-2.45-.42-1.23-.8-2.47-1.08-3.73-.81-3.62-1.24-7.31-1.95-10.95-.03-.17-.03-.33-.02-.49-2.56-1.69-4.01-4.77-7.05-6.12-1.94-.81-3.95-1.1-6.04-.49-.22.07-.81-.01-.88-.13-4.56-7.28-10.2-10.28-11.64-12.05-.31-.31-1.36-1.48-2.03-2.54l-.11-.32c.86.09,1.91-.29,2.9-.83-2.23-2.28-4.94-3.98-7.58-5.78-.54.63-1.06,1.28-1.57,1.97-1.43,1.96-2.86,4.46-2.32,7.14.36,2.5,2.14,4.82,3.57,6.96,2.71,4.62,7.38,15.28,15.29,23.49,0,13.42,4.2,27.65,6.13,33.09Z"/>
          <path class="cls-10" d="m42.96,47.43c-4.54-7.17-10.43-10.34-11.86-12.09-.31-.31-1.36-1.48-2.03-2.54l-.11-.32c.86.09,1.91-.29,2.9-.83-2.23-2.28-4.94-3.98-7.58-5.78-.54.63-1.06,1.28-1.57,1.97-1.43,1.96-2.86,4.46-2.32,7.14.36,2.5,2.14,4.82,3.57,6.96,2.68,4.56,7.48,15.17,15.25,23.36-.75-6-1.12-13.16,3.75-17.88Z"/>
          <path class="cls-4" d="m78.96,61.43s-.04,0-.05-.01c-8.94-4.22-13.02-12.85-13.06-12.94-.03-.06,0-.14.06-.17.06-.03.14,0,.17.06.04.09,4.09,8.63,12.94,12.81.06.03.09.1.06.17-.02.05-.07.07-.11.07Z"/>
        </g>
      </g>
    </g>
  </g>
</svg>