<?xml version="1.0" encoding="UTF-8"?>
<svg id="Layer_2" data-name="Layer 2" xmlns="http://www.w3.org/2000/svg" xmlns:xlink="http://www.w3.org/1999/xlink" viewBox="0 0 184.31 118">
  <defs>
    <style>
      .cls-1 {
        fill: url(#linear-gradient);
      }

      .cls-2 {
        fill: #f2e3d1;
      }

      .cls-3 {
        fill: #f9b984;
      }

      .cls-4 {
        fill: #ffe7d4;
      }

      .cls-5 {
        fill: #ff9a26;
      }

      .cls-6 {
        fill: #915323;
      }

      .cls-7 {
        fill: #c49ca6;
      }

      .cls-8 {
        fill: #542d1c;
      }

      .cls-9 {
        fill: #482300;
      }

      .cls-10 {
        fill: url(#linear-gradient-2);
      }
    </style>
    <linearGradient id="linear-gradient" x1="135.48" y1="18.31" x2="135.65" y2="26.81" gradientUnits="userSpaceOnUse">
      <stop offset="0" stop-color="#f9a263"/>
      <stop offset=".16" stop-color="#f9a76a"/>
      <stop offset=".65" stop-color="#f9b47d"/>
      <stop offset="1" stop-color="#f9b984"/>
    </linearGradient>
    <linearGradient id="linear-gradient-2" x1="61.3" y1="13.67" x2="76.54" y2="14.53" gradientUnits="userSpaceOnUse">
      <stop offset="0" stop-color="#542d1c"/>
      <stop offset=".06" stop-color="#512b1a"/>
      <stop offset=".55" stop-color="#44210f"/>
      <stop offset="1" stop-color="#401e0c"/>
    </linearGradient>
  </defs>
  <g id="_ëÎÓÈ_1" data-name="ëÎÓÈ 1">
    <g>
      <g>
        <path class="cls-7" d="m71.09,112l-2.48,5.9c-.04.09-.09.1-.15.1-.08,0-.1-.03-.14-.1l-3.55-8.45c-.05-.08,0-.18.08-.2.08-.04.18,0,.21.08l3.4,8.11,2.46-5.84c.03-.08.1-.11.16-.11.06-.01.14.04.18.11l2.45,5.84,3.41-8.11c.05-.08.13-.11.21-.08.09.03.13.13.09.2l-3.55,8.45c-.02.05-.05.1-.15.1-.09,0-.13-.03-.16-.11l-2.46-5.89Z"/>
        <path class="cls-7" d="m84.1,112.01v5.82c0,.1-.06.16-.15.16-.1,0-.16-.06-.16-.16v-1.53c-.48,1-1.46,1.69-2.59,1.69-1.61,0-2.9-1.39-2.9-3.08s1.29-3.07,2.9-3.07c1.13,0,2.11.7,2.59,1.69v-1.53c0-.08.06-.16.16-.16.09,0,.15.09.15.16Zm-.31,2.91c0-1.52-1.17-2.75-2.59-2.75s-2.59,1.23-2.59,2.75,1.17,2.76,2.59,2.76,2.59-1.23,2.59-2.76Z"/>
        <path class="cls-7" d="m86.76,114.96s-.01-.04,0-.08v-2.87c0-.09.08-.16.15-.16.1,0,.15.08.15.16v2.08c.1-.23.23-.48.39-.73.48-.72,1.27-1.52,2.45-1.52.1,0,.16.08.16.16s-.06.16-.16.16c-.78,0-1.37.38-1.78.84-.44.5-.74,1.13-.9,1.52-.1.28-.15.43-.15.43v2.87c0,.1-.05.16-.15.16-.08,0-.15-.06-.15-.16v-2.87Z"/>
        <path class="cls-7" d="m92.27,114.96s-.01-.04,0-.08v-2.87c0-.09.08-.16.15-.16.1,0,.15.08.15.16v2.08c.1-.23.23-.48.39-.73.48-.72,1.27-1.52,2.45-1.52.1,0,.16.08.16.16s-.06.16-.16.16c-.78,0-1.37.38-1.78.84-.44.5-.74,1.13-.9,1.52-.1.28-.15.43-.15.43v2.87c0,.1-.05.16-.15.16-.08,0-.15-.06-.15-.16v-2.87Z"/>
        <path class="cls-7" d="m97.78,110.03c0-.1.06-.16.16-.16.08,0,.15.06.15.16v.3c0,.08-.08.15-.15.15-.1,0-.16-.08-.16-.15v-.3Zm0,1.97c0-.1.06-.15.16-.15.08,0,.15.05.15.15v5.84c0,.09-.08.16-.15.16-.1,0-.16-.08-.16-.16v-5.84Z"/>
        <path class="cls-7" d="m103.91,111.85c1.61,0,2.91,1.38,2.91,3.07s-1.31,3.08-2.91,3.08-2.9-1.39-2.9-3.08,1.29-3.07,2.9-3.07Zm0,5.84c1.42,0,2.6-1.24,2.6-2.76s-1.18-2.76-2.6-2.76-2.59,1.23-2.59,2.76,1.17,2.76,2.59,2.76Z"/>
        <path class="cls-7" d="m109.16,114.96s-.01-.04,0-.08v-2.87c0-.09.08-.16.15-.16.1,0,.15.08.15.16v2.08c.1-.23.23-.48.39-.73.48-.72,1.27-1.52,2.45-1.52.1,0,.16.08.16.16s-.06.16-.16.16c-.78,0-1.37.38-1.78.84-.44.5-.74,1.13-.9,1.52-.1.28-.15.43-.15.43v2.87c0,.1-.05.16-.15.16-.08,0-.15-.06-.15-.16v-2.87Z"/>
        <path class="cls-7" d="m118.65,109.38c0-.1.06-.16.16-.16.08,0,.15.06.15.16v8.46c0,.1-.08.16-.15.16-.1,0-.16-.06-.16-.16v-8.46Z"/>
        <path class="cls-7" d="m122.48,109.38c0-.1.06-.16.16-.16.08,0,.15.06.15.16v8.46c0,.1-.08.16-.15.16-.1,0-.16-.06-.16-.16v-8.46Z"/>
        <path class="cls-7" d="m126.31,109.38c0-.1.06-.16.16-.16.08,0,.15.06.15.16v8.46c0,.1-.08.16-.15.16-.1,0-.16-.06-.16-.16v-8.46Z"/>
      </g>
      <g>
        <path class="cls-2" d="m174.91,91.11c0-2.67-37.01-4.83-82.67-4.83s-82.67,2.16-82.67,4.83,37.01,4.83,82.67,4.83,82.67-2.16,82.67-4.83Z"/>
        <g>
          <path class="cls-1" d="m137.47,19.05c.12-.13.24-.25.34-.36.05-.05.11-.09.17-.12.06.3.54.62.91.64-.28-.18-.46-.52-.45-.87.32-.12.67-.19,1.04-.26.69-.14,1.35-.39,1.97-.72.33-.17,1.15-.75,1.99-1.63-5.51-9.94-14.16-6.83-14.93-7.51-.52.67-.93,1.2-1.15,1.4l.03.11c-.54.47,1.44,4.39,1.59,7.01.13,1.16.34,2.8.57,3.32.42.97,1.18.61,1.94.24.4-.19.82-.3,1.19.03.19.17.22.3.47.39.16.05.32-.03.44-.12.22-.16.15-.41.28-.1.1.25.51.27.74.15.34-.17.26-.61.95-.24.17.1.32.24.5.33.19.09.39-.04.49-.2.31-.49.55-1.02.92-1.48Z"/>
          <path class="cls-6" d="m128.43,7.61c.63-.82,1.97-2.34,3.8-3.24,1.57-.77,2.54-.85,3.07-.79.09.01.18.03.25.05-.17-.55-.39-1.84.99-2.84.91-.65,2.39-.92,3.98-.73,2.04.25,4.56,1.34,4.95,3.6.14.8-.1,1.48-.4,1.98.13-.04.26-.07.38-.07.44-.02.73.34.71.62-.01.16-.14.35-.46.33-.2-.01-.44.01-.7.07.31.08.6.22.79.4.26.24.27.57.18.77-.13.28-.45.33-.68.07-.12-.13-.26-.26-.45-.39.64,1.24,1.46,3.14.82,5.32-.39,1.32-1.16,2.9-2.6,3.66l-.09.05-.06-.08c-3.01-1.61-4.03-3.63-6.76-3.5l-.03-.21c.61-.27.63-.94.64-1.25.02-.5-.5-1.43-1.62-1.29-1.69.21-3.02,1.87-3.02,1.87,0,0-4.32-1.48-4.61-2.65l.88-1.71.02-.03Z"/>
          <path class="cls-9" d="m145.98,7.75c-.13.28-.45.33-.68.07-.12-.13-.26-.26-.45-.39.04.07-6.03.39-9.8-3.87.09,0,.18,0,.25.02.04,0,.07.01.1.02.01.01.02.02.04.03,7.13,4.83,9.67,1.93,9.63,2,.13-.04.26-.07.38-.07.44-.02.73.34.71.62-.01.16-.14.35-.46.33-.2-.01-.44.01-.7.07.31.08.6.22.79.4.26.24.27.57.18.77Z"/>
          <path class="cls-9" d="m139.23,19.29s-.89-.66-1.22-2.03c-.23-.96-.96,1.89,1.22,2.03Z"/>
          <path class="cls-3" d="m129.52,19.86s-.89-2.83-.63-5.43c.22,1.35.35,3.21.63,5.43Z"/>
          <path class="cls-3" d="m183.82,11.77c-.88.8-3.58.83-3.58.83,2.06-.17,4-2.13,3.32-2.46l-.75-.47c-3.05,1.19-9.88.92-9.88.92-5.58.46-14.93-.8-21.56-.15-3.13-.59-21.38-2.4-25.94-2.79,0,.01,0,.02,0,.04-6.26-1.22-16.43,1.43-22.88.57-3.97-.53-6.09-1.11-8.34-1.8-3.47-1.29-7.96-2.58-11.09-1.5-.43.15-.82.31-1.2.47-1.97.59-3.75,1.42-5.65,2.37-4.67.13-16.28,1.35-20.52,1.87-.34.04-3.56.72-6.21,1.26-2.55-.66-6.37-2.12-8.76-2.64-7.51-1.49-14.6,2.98-21.8,1.87-2.24-.24-3.55-2.64-5.45-2.84-2.05-.39-3.53,2.07-4.88,3.31,0,0-8,.92-8.54,1.9-.51.93.92.93,1.4,1.33,4.6.13,8.84.43,13.32.9,9.32.81,18.85,1.3,28.06,3.14,2.16.44,7.19,1.28,8.97,1.41,0-.04,0-.07-.01-.1.19.05.37.11.56.16,4.31.97,19.46,2.47,25.88,2.81.51,1.7,1.02,3.64,1.19,5.54.7,8.21,3.05,16.61,4.14,20.26,1.37,4.72-.09,9.29-.36,14.1-.43,7.57,3.64,14.35,1.5,22.24-.43,1.59-2.08,4.85.23,6.09,2.3,1.23,3.47-.74,5.44.03,1.97.77,11,1.17,11.33-.33l-.02-.4c-.33-1.36-3.55-.78-4.26-1.17-1.34-.74-4.15-3.18-5.26-5.91-2.26-4.76-.27-12.06-.37-17.06-.11-4.83-.6-9.32.72-14.08.86-2.82,1.81-11.35,2.2-15.08.71-6.71-.62-12.31-.67-15.29,0-.04,0-.1,0-.15,5.5-.2,17.31.89,18.6,1.56,1.56.81,3.17,1.56,4.46,1.86,2.27.52,4.1.62,6.83-1.39,2.53-1.86,3.78-3.36,5.93-4.4,2.09-.36,5.68-.89,6.59-.98,4.41-.44,9.67-.3,14.07-1.53,3.52-.2,19.86-2.07,20.96-1.71,1.09.36,2.35,1.67,3.57,1.82,3.14.4,3.64,1.73,4.65,1.47.7-1.23-2.19-2.26-2.82-2.69,0,0,6.47-1.42,6.69-1.64.68-.7,1.12-2.35.24-1.55Z"/>
          <path class="cls-5" d="m120.41,15.18c-.59-2.94.19-5.74,2.09-7.81-3.56-.13-7.78.41-11.79.77-1.84,4.51-1.64,9.22-.43,13.86,1.22.18,2.1.36,2.4.51,1.56.81,3.17,1.56,4.46,1.86,2.27.52,4.1.62,6.83-1.39,1.09-.8,1.94-1.53,2.73-2.2-2.98-.43-5.65-2.48-6.28-5.6Z"/>
          <path class="cls-8" d="m94.07,20.96c.25,0,.52-.01.8-.02-.4-4.75-.43-9.51.09-14.27-.25-.07-.5-.15-.75-.23-3.47-1.29-7.96-2.58-11.09-1.5-.43.15-.82.31-1.2.47-1.97.59-3.75,1.42-5.65,2.37-4.67.13-16.28,1.35-20.52,1.87-.34.04-3.56.72-6.21,1.26-.65-.17-1.39-.39-2.16-.63-.75,2.75-.95,5.5-.8,8.29,2.05.34,4.23.67,5.28.75,0-.04,0-.07-.01-.1.19.05.37.11.56.16,4.31.97,19.46,2.47,25.88,2.81.51,1.7,1.02,3.64,1.19,5.54.7,8.21,3.05,16.61,4.14,20.26.87,2.99.6,5.91.22,8.88,2.59.51,5.22.78,7.85.79.07-2.04.29-4.08.87-6.17.86-2.82,1.81-11.35,2.2-15.08.71-6.71-.62-12.31-.67-15.29,0-.04,0-.1,0-.15Z"/>
          <path class="cls-10" d="m78.24,22.11c-3.83-7.67-1.67-12.6-.63-14.99-.45.21-.89.43-1.35.66-4.67.13-16.28,1.35-20.52,1.87-.34.04-3.56.72-6.21,1.26-.65-.17-1.39-.39-2.16-.63-.75,2.75-.95,5.5-.8,8.29,2.05.34,4.23.67,5.28.75,0-.04,0-.07-.01-.1.19.05.37.11.56.16,4.05.91,18.88,2.29,25.83,2.74Z"/>
          <path class="cls-4" d="m111.74,22.4c-.05,0-.1-.04-.12-.09-2.32-8.28.48-14.2.51-14.26.03-.06.11-.09.17-.06.06.03.09.11.06.17-.03.06-2.78,5.89-.49,14.08.02.07-.02.14-.09.15-.01,0-.02,0-.03,0Z"/>
        </g>
      </g>
    </g>
  </g>
</svg>