<?xml version="1.0" encoding="UTF-8"?>
<svg id="Layer_2" data-name="Layer 2" xmlns="http://www.w3.org/2000/svg" viewBox="0 0 152.67 132.61">
  <defs>
    <style>
      .cls-1 {
        fill: #f7b281;
      }

      .cls-2 {
        fill: #f2e3d1;
      }

      .cls-3 {
        fill: #f9b984;
      }

      .cls-4 {
        fill: #ffe7d4;
      }

      .cls-5 {
        fill: #ff9a26;
      }

      .cls-6 {
        fill: #915323;
      }

      .cls-7 {
        fill: #d19b6f;
      }

      .cls-8 {
        fill: #c49ca6;
      }

      .cls-9 {
        fill: #542d1c;
      }

      .cls-10 {
        fill: #482300;
      }
    </style>
  </defs>
  <g id="_ëÎÓÈ_1" data-name="ëÎÓÈ 1">
    <g>
      <g>
        <path class="cls-8" d="m59.61,126.61l-2.48,5.9c-.04.09-.09.1-.15.1-.08,0-.1-.03-.14-.1l-3.55-8.45c-.05-.08,0-.18.08-.2.08-.04.18,0,.21.08l3.4,8.11,2.46-5.84c.03-.08.1-.11.16-.11.06-.01.14.04.18.11l2.45,5.84,3.41-8.11c.05-.08.13-.11.21-.08.09.03.13.13.09.2l-3.55,8.45c-.02.05-.05.1-.15.1-.09,0-.13-.03-.16-.11l-2.46-5.89Z"/>
        <path class="cls-8" d="m72.62,126.62v5.82c0,.1-.06.16-.15.16-.1,0-.16-.06-.16-.16v-1.53c-.48,1-1.46,1.69-2.59,1.69-1.61,0-2.9-1.39-2.9-3.08s1.29-3.07,2.9-3.07c1.13,0,2.11.7,2.59,1.69v-1.53c0-.08.06-.16.16-.16.09,0,.15.09.15.16Zm-.31,2.91c0-1.52-1.17-2.75-2.59-2.75s-2.59,1.23-2.59,2.75,1.17,2.76,2.59,2.76,2.59-1.23,2.59-2.76Z"/>
        <path class="cls-8" d="m75.27,129.57s-.01-.04,0-.08v-2.87c0-.09.08-.16.15-.16.1,0,.15.08.15.16v2.08c.1-.23.23-.48.39-.73.48-.72,1.27-1.52,2.45-1.52.1,0,.16.08.16.16s-.06.16-.16.16c-.78,0-1.37.38-1.78.84-.44.5-.74,1.13-.9,1.52-.1.28-.15.43-.15.43v2.87c0,.1-.05.16-.15.16-.08,0-.15-.06-.15-.16v-2.87Z"/>
        <path class="cls-8" d="m80.78,129.57s-.01-.04,0-.08v-2.87c0-.09.08-.16.15-.16.1,0,.15.08.15.16v2.08c.1-.23.23-.48.39-.73.48-.72,1.27-1.52,2.45-1.52.1,0,.16.08.16.16s-.06.16-.16.16c-.78,0-1.37.38-1.78.84-.44.5-.74,1.13-.9,1.52-.1.28-.15.43-.15.43v2.87c0,.1-.05.16-.15.16-.08,0-.15-.06-.15-.16v-2.87Z"/>
        <path class="cls-8" d="m86.29,124.64c0-.1.06-.16.16-.16.08,0,.15.06.15.16v.3c0,.08-.08.15-.15.15-.1,0-.16-.08-.16-.15v-.3Zm0,1.97c0-.1.06-.15.16-.15.08,0,.15.05.15.15v5.84c0,.09-.08.16-.15.16-.1,0-.16-.08-.16-.16v-5.84Z"/>
        <path class="cls-8" d="m92.42,126.46c1.61,0,2.91,1.38,2.91,3.07s-1.31,3.08-2.91,3.08-2.9-1.39-2.9-3.08,1.29-3.07,2.9-3.07Zm0,5.84c1.42,0,2.6-1.24,2.6-2.76s-1.18-2.76-2.6-2.76-2.59,1.23-2.59,2.76,1.17,2.76,2.59,2.76Z"/>
        <path class="cls-8" d="m97.67,129.57s-.01-.04,0-.08v-2.87c0-.09.08-.16.15-.16.1,0,.15.08.15.16v2.08c.1-.23.23-.48.39-.73.48-.72,1.27-1.52,2.45-1.52.1,0,.16.08.16.16s-.06.16-.16.16c-.78,0-1.37.38-1.78.84-.44.5-.74,1.13-.9,1.52-.1.28-.15.43-.15.43v2.87c0,.1-.05.16-.15.16-.08,0-.15-.06-.15-.16v-2.87Z"/>
        <path class="cls-8" d="m107.16,123.98c0-.1.06-.16.16-.16.08,0,.15.06.15.16v8.46c0,.1-.08.16-.15.16-.1,0-.16-.06-.16-.16v-8.46Z"/>
        <path class="cls-8" d="m110.99,123.98c0-.1.06-.16.16-.16.08,0,.15.06.15.16v8.46c0,.1-.08.16-.15.16-.1,0-.16-.06-.16-.16v-8.46Z"/>
      </g>
      <g>
        <path class="cls-2" d="m152.67,105.79c0-2.67-34.18-4.83-76.33-4.83S0,103.12,0,105.79s34.18,4.83,76.33,4.83,76.33-2.16,76.33-4.83Z"/>
        <g>
          <path class="cls-3" d="m135.76,24.16l-.2-.05c.9-.82,1.86-1.64.94-3.11-.47.52-.72.86-1.41,1.23-.49.4-1.23.86-1.72,1.26-.81.71-.96,1.75-2.81,2.25l-.15-.02c-3.02.34-11.66-.09-14.73.11-7.05.47-14.09-2.18-18.94-3.13-1.9-.37-3.28-.2-5.19-.1-2.71.15-3.24.44-4.77.25-.02-.01-.04-.02-.06-.03-.2-1.86.21-3.23.39-3.72,1.16.13,2.74.27,3.28.17,1.04-.19.85-1.02.66-1.84-.1-.44-.12-.87.29-1.15.21-.14.35-.15.49-.37.09-.14.04-.32-.02-.45-.1-.25-.37-.24-.03-.3.27-.04.37-.44.31-.68-.09-.37-.54-.39-.03-.98.13-.15.3-.26.43-.42.14-.17.05-.38-.09-.52-.41-.41-.87-.76-1.24-1.22-.1-.14-.2-.29-.28-.41-.03-.06-.06-.13-.08-.19.3,0,.72-.39.82-.75-.24.24-.61.33-.95.25-.05-.34-.03-.7-.02-1.08.01-.7-.09-1.4-.27-2.08-.09-.36-.48-1.29-1.15-2.3-10.91,3.2-9.77,12.32-10.6,12.91.48.58.86,1.04,1.04,1.32-.25,1.35-.7,2.91-1.43,3.6-.11.1-.22.18-.33.25-.67-.07-1.48-.18-2.85-.25-1.91-.1-3.29-.27-5.19.1-4.85.95-11.89,3.6-18.94,3.13-3.07-.2-9.92.72-12.94.38h-.14c-1.17-.28-2.17-.7-3.55-.62-2.34.14-5.84,1.58-7.01,1.54-1.03-.03-2.06-.21-2.96.5,1.84,2.42,5.56.86,7.9,1.38,1.11.24,2.8.1,4.83-.06,1.43.32,2.89.77,4.01.88,2.85.21,5.47.9,8.18,1.14,5.85.41,20.08.24,22.22,0,.42-.05.93.45,1.43,1.18,2.02,4.26,3.57,10.25,3.68,15.08.06,2.39.09,4.23-.92,6.84,0,0,0,.01-.01.02-.52,1.05-1.08,2.21-1.77,3.26-3.62,4.62-7.46,9.36-10.27,12.07-2.92,3.12-5.85,6.69-9.36,9.19-3.21,2.36-6.85,3.81-10.51,5.55-3.61,1.66-13.46,10.33-14.64,11.36-1.84,1.61-3.44,2.75-3.9,3.67-.46.92-1.62,7.77.23,8.26,1.85.49,2.98.23,5.51,0,2.52-.23,3.67-.69,3.67-2.06s-2.75-1.84-2.75-1.84c0,0-.46-1.61-.69-2.98-.02-.12.04-.27.16-.44,2.27-1.54,6.06-3.64,11.24-5.93,7.47-3.3,9.38-7.38,14.24-9.21,2.41-.91,9.61-3.16,17.55-8.75,3.27-2.31,8.28-6.72,10.63-8.78,10.77,1.05,17,3,28.65,1.82-.23,1.83-.67,3.21-.85,5.86-.21,3.82,1.58,9.7,2.27,12.3,1.39,5.37,2.26,8.6,1.28,13.92l-.45,1.9c-.76,2.25.27,3.47,1.94,3.99,2.72.87,6.04,0,8.92.52,1.66.17,6.31.45,5.69-1.51-.31-.62-10.15-3.46-10.85-6.72-.7-3.26.59-31.47-.16-34.73-.3-1.28-.7-2.26-1.59-2.84,0,0,0-.02,0-.02-.41-.27-.87-.52-1.44-.75-2.61-1.12-13.1-3.2-21.41-4.86-3.1-.62-4.53-2.55-5.12-3.58-3.34-5.8-.84-13.93.12-17.23.83-2.07,1.23-4.65,2.17-4.55,2.14.24,17.37.41,23.22,0,2.71-.23,5.33-.92,8.18-1.14,2.56-.25,5.91-.84,8.52-.35l.25-.03v.04c1.65.13,3.22.15,4.91-.06,1.24-.1,1.88.35,4.06-2.58,1.61-2.17-5.83-2.29-7.53-2.69Z"/>
          <path class="cls-9" d="m113.22,71.86c2.75.39,5.71.44,8.45-.15.01-3.43-.04-6.06-.24-6.92-.3-1.28-.7-2.26-1.59-2.84,0,0,0-.02,0-.02-.41-.27-.87-.52-1.44-.75-2.61-1.12-13.1-3.2-21.41-4.86-3.01-.6-4.43-2.43-5.06-3.48-5.2.19-11.84.16-15.68-.64-.14.59-.33,1.2-.58,1.86,0,0,0,.01-.01.02-.52,1.05-1.08,2.21-1.77,3.26-3.62,4.62-7.46,9.36-10.27,12.07-2.92,3.12-5.85,6.69-9.36,9.19-1.45,1.07-3,1.95-4.59,2.75.3,2.37,1.25,4.49,2.67,6.32,1.38-1.09,2.74-2.04,4.48-2.69,2.41-.91,9.61-3.16,17.55-8.75,3.27-2.31,8.28-6.72,10.63-8.78,8.17,1.5,17,3,28.65,1.82-.11.9-.28,1.7-.44,2.59Z"/>
          <path class="cls-6" d="m78.02,17.63c-.67-.8-1.85-2.44-2.33-4.42-.41-1.7-.28-2.67-.09-3.17.03-.09.07-.17.1-.23-.57.05-1.88-.02-2.55-1.59-.44-1.03-.38-2.54.16-4.04.69-1.93,2.31-4.15,4.6-4.04.81.04,1.42.43,1.84.82-.01-.14,0-.27.01-.39.08-.44.49-.64.76-.55.16.05.31.22.22.52-.05.19-.08.43-.09.69.15-.29.35-.54.56-.69.29-.2.61-.14.79,0,.25.19.22.51-.08.68-.15.08-.31.2-.48.35,1.35-.35,3.38-.74,5.37.37,1.21.67,2.58,1.77,3,3.35l.03.09-.09.04c-2.24,2.58-4.42,3.14-4.9,5.82l-.21-.02c-.13-.66-.78-.82-1.08-.9-.49-.13-1.51.18-1.61,1.3-.16,1.7,1.16,3.36,1.16,3.36,0,0-2.39,3.89-3.6,3.92l-1.47-1.24-.02-.03Z"/>
          <path class="cls-10" d="m82.01.54c.25.19.22.51-.08.68-.15.08-.31.2-.48.35.08-.02-.95,5.97-5.93,8.71.02-.09.05-.17.07-.24.01-.04.03-.06.04-.1.01-.01.03-.02.04-.03,6.28-5.9,4.01-9.01,4.07-8.95-.01-.14,0-.27.01-.39.08-.44.49-.64.76-.55.16.05.31.22.22.52-.05.19-.08.43-.09.69.15-.29.35-.54.56-.69.29-.2.61-.14.79,0Z"/>
          <path class="cls-10" d="m91.79,9.66s-.84.72-2.25.75c-.98.02,1.63,1.36,2.25-.75Z"/>
          <path class="cls-7" d="m90.21,19.26s-2.96.24-5.44-.58c1.36.08,3.21.36,5.44.58Z"/>
          <path class="cls-1" d="m88.83,16.04c-1.76.27-3.35-1.93-2.42-3.66.93-1.73,3.56,3.49,2.42,3.66Z"/>
          <path class="cls-5" d="m76.58,22.75s-.75,9.88,6.42,9.88,5.52-9.75,5.52-9.75l.81-.06s2.88,10.19,3.17,10.81c.71,1.56.25,4.65-1.54,6.29-.15.13-.38,1.09-.55,1.21-1.83,1.27-12.08.83-14.33.08-.49-.16-.42-1.25-.42-1.25,0,0-3.21-2.27-1.83-8.5,1.2-5.46,2.19-8.77,2.19-8.77l.56.06Z"/>
          <path class="cls-4" d="m84.91,41.12c-4.61,0-9.2-.78-9.27-.79-.07-.01-.11-.08-.1-.14.01-.07.07-.12.14-.1.1.02,9.71,1.65,15.03.17.06-.02.14.02.15.09.02.07-.02.14-.09.15-1.68.47-3.78.63-5.87.63Z"/>
        </g>
      </g>
    </g>
  </g>
</svg>