<?xml version="1.0" encoding="UTF-8"?>
<svg id="Layer_2" data-name="Layer 2" xmlns="http://www.w3.org/2000/svg" xmlns:xlink="http://www.w3.org/1999/xlink" viewBox="0 0 149.17 165.01">
  <defs>
    <style>
      .cls-1 {
        fill: url(#linear-gradient);
      }

      .cls-2 {
        fill: #f2e3d1;
      }

      .cls-3 {
        fill: #f9b984;
      }

      .cls-4 {
        fill: #ffe7d4;
      }

      .cls-5 {
        fill: #ff9a26;
      }

      .cls-6 {
        fill: #915323;
      }

      .cls-7 {
        fill: #d19b6f;
      }

      .cls-8 {
        fill: #c49ca6;
      }

      .cls-9 {
        fill: #542d1c;
      }

      .cls-10 {
        fill: #482300;
      }

      .cls-11 {
        fill: url(#linear-gradient-2);
      }
    </style>
    <linearGradient id="linear-gradient" x1="82.43" y1="42.23" x2="90.01" y2="42.23" gradientUnits="userSpaceOnUse">
      <stop offset="0" stop-color="#f9a263"/>
      <stop offset=".16" stop-color="#f9a76a"/>
      <stop offset=".65" stop-color="#f9b47d"/>
      <stop offset="1" stop-color="#f9b984"/>
    </linearGradient>
    <linearGradient id="linear-gradient-2" x1="116.7" y1="96.25" x2="80.95" y2="96.75" gradientUnits="userSpaceOnUse">
      <stop offset="0" stop-color="#542d1c"/>
      <stop offset=".06" stop-color="#512b1a"/>
      <stop offset=".55" stop-color="#44210f"/>
      <stop offset="1" stop-color="#401e0c"/>
    </linearGradient>
  </defs>
  <g id="_ëÎÓÈ_1" data-name="ëÎÓÈ 1">
    <g>
      <g>
        <path class="cls-8" d="m55.5,159.01l-2.48,5.9c-.04.09-.09.1-.15.1-.08,0-.1-.03-.14-.1l-3.55-8.45c-.05-.08,0-.18.08-.2.08-.04.18,0,.21.08l3.4,8.11,2.46-5.84c.03-.08.1-.11.16-.11.06-.01.14.04.18.11l2.45,5.84,3.41-8.11c.05-.08.13-.11.21-.08.09.03.13.13.09.2l-3.55,8.45c-.02.05-.05.1-.15.1-.09,0-.13-.03-.16-.11l-2.46-5.89Z"/>
        <path class="cls-8" d="m68.51,159.02v5.82c0,.1-.06.16-.15.16-.1,0-.16-.06-.16-.16v-1.53c-.48,1-1.46,1.69-2.59,1.69-1.61,0-2.9-1.39-2.9-3.08s1.29-3.07,2.9-3.07c1.13,0,2.11.7,2.59,1.69v-1.53c0-.08.06-.16.16-.16.09,0,.15.09.15.16Zm-.31,2.91c0-1.52-1.17-2.75-2.59-2.75s-2.59,1.23-2.59,2.75,1.17,2.76,2.59,2.76,2.59-1.23,2.59-2.76Z"/>
        <path class="cls-8" d="m71.16,161.97s-.01-.04,0-.08v-2.87c0-.09.08-.16.15-.16.1,0,.15.08.15.16v2.08c.1-.23.23-.48.39-.73.48-.72,1.27-1.52,2.45-1.52.1,0,.16.08.16.16s-.06.16-.16.16c-.78,0-1.37.38-1.78.84-.44.5-.74,1.13-.9,1.52-.1.28-.15.43-.15.43v2.87c0,.1-.05.16-.15.16-.08,0-.15-.06-.15-.16v-2.87Z"/>
        <path class="cls-8" d="m76.67,161.97s-.01-.04,0-.08v-2.87c0-.09.08-.16.15-.16.1,0,.15.08.15.16v2.08c.1-.23.23-.48.39-.73.48-.72,1.27-1.52,2.45-1.52.1,0,.16.08.16.16s-.06.16-.16.16c-.78,0-1.37.38-1.78.84-.44.5-.74,1.13-.9,1.52-.1.28-.15.43-.15.43v2.87c0,.1-.05.16-.15.16-.08,0-.15-.06-.15-.16v-2.87Z"/>
        <path class="cls-8" d="m82.19,157.04c0-.1.06-.16.16-.16.08,0,.15.06.15.16v.3c0,.08-.08.15-.15.15-.1,0-.16-.08-.16-.15v-.3Zm0,1.97c0-.1.06-.15.16-.15.08,0,.15.05.15.15v5.84c0,.09-.08.16-.15.16-.1,0-.16-.08-.16-.16v-5.84Z"/>
        <path class="cls-8" d="m88.31,158.86c1.61,0,2.91,1.38,2.91,3.07s-1.31,3.08-2.91,3.08-2.9-1.39-2.9-3.08,1.29-3.07,2.9-3.07Zm0,5.84c1.42,0,2.6-1.24,2.6-2.76s-1.18-2.76-2.6-2.76-2.59,1.23-2.59,2.76,1.17,2.76,2.59,2.76Z"/>
        <path class="cls-8" d="m93.56,161.97s-.01-.04,0-.08v-2.87c0-.09.08-.16.15-.16.1,0,.15.08.15.16v2.08c.1-.23.23-.48.39-.73.48-.72,1.27-1.52,2.45-1.52.1,0,.16.08.16.16s-.06.16-.16.16c-.78,0-1.37.38-1.78.84-.44.5-.74,1.13-.9,1.52-.1.28-.15.43-.15.43v2.87c0,.1-.05.16-.15.16-.08,0-.15-.06-.15-.16v-2.87Z"/>
        <path class="cls-8" d="m103.06,156.38c0-.1.06-.16.16-.16.08,0,.15.06.15.16v8.46c0,.1-.08.16-.15.16-.1,0-.16-.06-.16-.16v-8.46Z"/>
      </g>
      <g>
        <ellipse class="cls-2" cx="74.58" cy="137.89" rx="74.58" ry="4.83"/>
        <g>
          <g>
            <path class="cls-1" d="m85.58,38.29c-.17-.08-.32-.16-.46-.23-.06-.04-.12-.08-.17-.13.27-.15.45-.71.35-1.09-.09.33-.38.61-.72.71-.21-.28-.39-.61-.57-.95-.34-.63-.79-1.21-1.3-1.72-.26-.27-1.09-.91-2.2-1.47-8.12,8.42-2.46,15.99-2.89,16.94.82.31,1.46.55,1.72.71l.1-.06c.62.39,3.89-2.74,6.41-3.67,1.11-.47,2.65-1.18,3.09-1.56.83-.7.24-1.34-.35-1.98-.31-.34-.55-.72-.33-1.18.11-.23.23-.31.25-.58,0-.17-.13-.3-.25-.4-.22-.17-.45-.02-.18-.25.22-.17.11-.58-.07-.77-.27-.28-.68-.07-.52-.86.04-.2.14-.39.17-.59.03-.22-.15-.37-.34-.42-.58-.16-1.17-.24-1.73-.46Z"/>
            <g>
              <path class="cls-6" d="m77.04,50.62c-1-.38-2.9-1.24-4.33-2.76-1.23-1.32-1.6-2.24-1.7-2.79-.02-.09-.03-.18-.03-.26-.49.34-1.69.94-3.09-.12-.91-.69-1.63-2.08-1.92-3.69-.37-2.08-.05-4.89,2.05-5.95.75-.38,1.49-.34,2.06-.2-.08-.12-.14-.23-.18-.35-.15-.43.11-.82.4-.88.16-.03.38.04.46.35.05.2.14.43.27.66-.02-.33.04-.66.15-.9.16-.32.48-.44.71-.41.32.04.46.34.27.65-.09.15-.18.34-.25.56,1.03-1,2.64-2.38,4.99-2.41,1.42-.01,3.2.26,4.39,1.46l.07.07-.06.08c-.68,3.45-2.35,5.06-1.41,7.7l-.2.09c-.45-.52-1.11-.33-1.42-.25-.5.13-1.25.93-.78,1.98.72,1.6,2.75,2.41,2.75,2.41,0,0-.16,4.69-1.21,5.34l-1.94-.36h-.04Z"/>
              <path class="cls-10" d="m71.9,33.32c.32.04.46.34.27.65-.09.15-.18.34-.25.56.06-.06,2.2,5.81-.86,10.8-.03-.09-.05-.17-.06-.25,0-.04,0-.07-.01-.11,0-.02.02-.03.02-.05,2.61-8.47-1.01-10.09-.93-10.07-.08-.12-.14-.23-.18-.35-.15-.43.11-.82.4-.88.16-.03.38.04.46.35.05.2.14.43.27.66-.02-.33.04-.66.15-.9.16-.32.48-.44.71-.41Z"/>
              <path class="cls-10" d="m85.28,36.48s-.38,1.07-1.63,1.81c-.87.52,2.15.38,1.63-1.81Z"/>
              <path class="cls-7" d="m88.76,45.86s-2.52,1.72-5.16,2.25c1.26-.62,3.05-1.31,5.16-2.25Z"/>
            </g>
          </g>
          <path class="cls-3" d="m76.94,57.53c.27,6.34,2.32,14.63,2.55,19.76.11,2.57-.11,4.2-.92,5.96-.44.55-.93,1.07-1.43,1.61-10.47,6.12-13.92,21.46-25.15,27.81-2.07,1.03-6.5,2.55-9.09,3.93-3.36,1.85-7.17,6.2-10.75,9.23-1.76,1.49-3.27,3.02-4.7,4.38-2.27,1.95-4.51,4.07-5.48,5.3-1.09,1.39-.88,3.24.79,3.77,2.72.87,2.5-.75,9.81.54,1.66.17,6.31.45,5.69-1.51-.25-.5-7.82-1.72-8.75-4.41,6.58-4.18,19.4-10.03,24.28-13.17,4.73-.79,23.48-14.14,28.64-19.87,10.17,1.03,21.15,2.22,28.4.17-.23,1.83-.67,3.21-.85,5.85-.21,3.82,1.58,9.7,2.27,12.3,1.39,5.37,2.26,8.6,1.28,13.92l-.45,1.9c-.76,2.25.27,3.47,1.94,3.99,2.72.87,6.04,0,8.92.52,1.66.17,6.31.45,5.69-1.51-.31-.62-10.15-3.46-10.85-6.72-.7-3.26.59-31.47-.16-34.73-.3-1.28-.7-2.26-1.59-2.84,0,0,0-.02,0-.03-.41-.27-.87-.52-1.44-.75-3.09-1.33-14.45-4.95-24.25-4.38.41-2.69.77-5.7.98-6.47,1.65-6,2.59-10.54,2.27-13.64l.04-.16c3.58-2.21,3-7.45.58-8.94-4.34-2.69-7.54-2.88-9.56-7.47s-1.53-11.59-1.57-12.1c-.19-2.55-.49-5.1-1.19-7.39,1.04-6.3-1.05-14.66-.41-20.63,0,0,1.22-2.69.72-6.9-.11-.95-.69-2.7-1.36-2.62l-.12-.05c-.32-.69-.73-1.13-1.28-1.01l-.24-.07C79.94.45,79.67,0,79.38,0c-.31,0-.44.39-.45.97l-.18.23c-1.35,2.44-.57,6.47-.57,6.47-.41-.64-1.12-2.51-2.37-1.84,1.01.97.32,2.32,1.11,3.64.63,1.06,1.41,2.51,1.74,3.62.33,1.1-.96,4.88-1.31,6.64-.6,3.13.26,8.27.12,11.64-.24,1.17-.53,5.1-.65,6.29l.13,19.89Z"/>
          <path class="cls-5" d="m94.42,72.62c.22-1.61.28-3.01.16-4.2l.04-.16c3.58-2.21,3-7.45.58-8.94-3.58-2.22-6.39-2.75-8.4-5.44,2.36,7.18-2.19,13.11-8.92,11.8.34,2.16.71,4.32,1.02,6.32,5.17.5,10.37,1.07,15.52.62Z"/>
          <path class="cls-9" d="m110.3,104.17c2.84.3,5.73.54,8.54.24.03-3.9-.02-6.94-.24-7.88-.3-1.28-.7-2.26-1.59-2.84,0,0,0-.02,0-.03-.41-.27-.87-.52-1.44-.75-3.09-1.33-14.45-4.95-24.25-4.38.18-1.19.35-2.43.5-3.53-4.46-.14-8.9-.6-13.14-2.05-.04.09-.08.19-.12.28-.44.55-.93,1.07-1.43,1.61-10.47,6.12-13.92,21.46-25.15,27.81-.84.42-2.09.93-3.43,1.47-.1,3.03.66,5.85,2.17,8.41,1.16-.66,2.2-1.27,3.05-1.82,4.73-.79,23.48-14.14,28.64-19.87,10.17,1.03,21.15,2.22,28.4.17-.14,1.09-.35,2.02-.53,3.16Z"/>
          <path class="cls-11" d="m118.6,96.53c-.3-1.28-.7-2.26-1.59-2.84,0,0,0-.02,0-.03-.41-.27-.87-.52-1.44-.75-3.09-1.33-14.45-4.95-24.25-4.38.01-.08.02-.15.03-.23-1.96,4.62-5.29,8.13-8.8,11.63.13.3.17.63.1.94,10.1,1.02,20.97,2.18,28.17.14-.14,1.09-.35,2.02-.53,3.16,2.84.3,5.73.54,8.54.24.03-3.9-.02-6.94-.24-7.88Z"/>
          <path class="cls-4" d="m92.23,71.42c-5.42,0-13.48-.73-13.58-.73-.07,0-.12-.07-.11-.14,0-.07.07-.12.14-.11.11.01,11.05,1,15.98.67.08,0,.13.05.13.12,0,.07-.05.13-.12.13-.71.05-1.54.07-2.45.07Z"/>
        </g>
      </g>
    </g>
  </g>
</svg>